<mxfile host="Electron" modified="2024-07-14T18:48:57.795Z" agent="Mozilla/5.0 (Windows NT 10.0; Win64; x64) AppleWebKit/537.36 (KHTML, like Gecko) draw.io/24.6.4 Chrome/124.0.6367.207 Electron/30.0.6 Safari/537.36" etag="afq7EJP5Awc5elqVPucV" version="24.6.4" type="device">
  <diagram name="Page-1" id="2YBvvXClWsGukQMizWep">
    <mxGraphModel dx="942" dy="595" grid="1" gridSize="10" guides="1" tooltips="1" connect="1" arrows="1" fold="1" page="1" pageScale="1" pageWidth="850" pageHeight="1100" math="0" shadow="0">
      <root>
        <mxCell id="0" />
        <mxCell id="1" parent="0" />
        <mxCell id="aM9ryv3xv72pqoxQDRHE-5" value="React App" style="shape=umlLifeline;perimeter=lifelinePerimeter;whiteSpace=wrap;html=1;container=0;dropTarget=0;collapsible=0;recursiveResize=0;outlineConnect=0;portConstraint=eastwest;newEdgeStyle={&quot;edgeStyle&quot;:&quot;elbowEdgeStyle&quot;,&quot;elbow&quot;:&quot;vertical&quot;,&quot;curved&quot;:0,&quot;rounded&quot;:0};" parent="1" vertex="1">
          <mxGeometry x="220" y="40" width="100" height="640" as="geometry" />
        </mxCell>
        <mxCell id="aM9ryv3xv72pqoxQDRHE-6" value="" style="html=1;points=[];perimeter=orthogonalPerimeter;outlineConnect=0;targetShapes=umlLifeline;portConstraint=eastwest;newEdgeStyle={&quot;edgeStyle&quot;:&quot;elbowEdgeStyle&quot;,&quot;elbow&quot;:&quot;vertical&quot;,&quot;curved&quot;:0,&quot;rounded&quot;:0};" parent="aM9ryv3xv72pqoxQDRHE-5" vertex="1">
          <mxGeometry x="45" y="80" width="10" height="520" as="geometry" />
        </mxCell>
        <mxCell id="aM9ryv3xv72pqoxQDRHE-7" value="Initiates the search action&lt;br&gt;&amp;nbsp;in search bar" style="html=1;verticalAlign=bottom;endArrow=block;edgeStyle=elbowEdgeStyle;elbow=vertical;curved=0;rounded=0;" parent="1" source="aM9ryv3xv72pqoxQDRHE-2" target="aM9ryv3xv72pqoxQDRHE-6" edge="1">
          <mxGeometry relative="1" as="geometry">
            <mxPoint x="195" y="130" as="sourcePoint" />
            <Array as="points">
              <mxPoint x="180" y="120" />
            </Array>
          </mxGeometry>
        </mxCell>
        <mxCell id="aM9ryv3xv72pqoxQDRHE-8" value="Show not found post message" style="html=1;verticalAlign=bottom;endArrow=open;dashed=1;endSize=8;edgeStyle=elbowEdgeStyle;elbow=vertical;curved=0;rounded=0;" parent="1" edge="1">
          <mxGeometry relative="1" as="geometry">
            <mxPoint x="95" y="220" as="targetPoint" />
            <Array as="points">
              <mxPoint x="190" y="220" />
            </Array>
            <mxPoint x="265" y="220" as="sourcePoint" />
          </mxGeometry>
        </mxCell>
        <mxCell id="xGmH4QYdPzegJPW_liUz-1" value="Express server" style="shape=umlLifeline;perimeter=lifelinePerimeter;whiteSpace=wrap;html=1;container=0;dropTarget=0;collapsible=0;recursiveResize=0;outlineConnect=0;portConstraint=eastwest;newEdgeStyle={&quot;edgeStyle&quot;:&quot;elbowEdgeStyle&quot;,&quot;elbow&quot;:&quot;vertical&quot;,&quot;curved&quot;:0,&quot;rounded&quot;:0};" parent="1" vertex="1">
          <mxGeometry x="410" y="40" width="100" height="640" as="geometry" />
        </mxCell>
        <mxCell id="xGmH4QYdPzegJPW_liUz-2" value="" style="html=1;points=[];perimeter=orthogonalPerimeter;outlineConnect=0;targetShapes=umlLifeline;portConstraint=eastwest;newEdgeStyle={&quot;edgeStyle&quot;:&quot;elbowEdgeStyle&quot;,&quot;elbow&quot;:&quot;vertical&quot;,&quot;curved&quot;:0,&quot;rounded&quot;:0};" parent="xGmH4QYdPzegJPW_liUz-1" vertex="1">
          <mxGeometry x="45" y="80" width="10" height="520" as="geometry" />
        </mxCell>
        <mxCell id="xGmH4QYdPzegJPW_liUz-3" value="Send GET request for search post" style="html=1;verticalAlign=bottom;endArrow=block;edgeStyle=elbowEdgeStyle;elbow=vertical;curved=0;rounded=0;" parent="1" source="aM9ryv3xv72pqoxQDRHE-6" target="xGmH4QYdPzegJPW_liUz-2" edge="1">
          <mxGeometry relative="1" as="geometry">
            <mxPoint x="280" y="130" as="sourcePoint" />
            <Array as="points">
              <mxPoint x="365" y="130" />
            </Array>
            <mxPoint x="450" y="130" as="targetPoint" />
          </mxGeometry>
        </mxCell>
        <mxCell id="xGmH4QYdPzegJPW_liUz-6" value="Mongo" style="shape=umlLifeline;perimeter=lifelinePerimeter;whiteSpace=wrap;html=1;container=0;dropTarget=0;collapsible=0;recursiveResize=0;outlineConnect=0;portConstraint=eastwest;newEdgeStyle={&quot;edgeStyle&quot;:&quot;elbowEdgeStyle&quot;,&quot;elbow&quot;:&quot;vertical&quot;,&quot;curved&quot;:0,&quot;rounded&quot;:0};" parent="1" vertex="1">
          <mxGeometry x="610" y="40" width="100" height="640" as="geometry" />
        </mxCell>
        <mxCell id="xGmH4QYdPzegJPW_liUz-7" value="" style="html=1;points=[];perimeter=orthogonalPerimeter;outlineConnect=0;targetShapes=umlLifeline;portConstraint=eastwest;newEdgeStyle={&quot;edgeStyle&quot;:&quot;elbowEdgeStyle&quot;,&quot;elbow&quot;:&quot;vertical&quot;,&quot;curved&quot;:0,&quot;rounded&quot;:0};" parent="xGmH4QYdPzegJPW_liUz-6" vertex="1">
          <mxGeometry x="45" y="80" width="10" height="520" as="geometry" />
        </mxCell>
        <mxCell id="xGmH4QYdPzegJPW_liUz-8" value="Search DB using Mongoose" style="html=1;verticalAlign=bottom;endArrow=block;edgeStyle=elbowEdgeStyle;elbow=vertical;curved=0;rounded=0;" parent="1" edge="1">
          <mxGeometry relative="1" as="geometry">
            <mxPoint x="465" y="160" as="sourcePoint" />
            <Array as="points">
              <mxPoint x="560" y="160" />
            </Array>
            <mxPoint x="655" y="160" as="targetPoint" />
          </mxGeometry>
        </mxCell>
        <mxCell id="xGmH4QYdPzegJPW_liUz-9" value="Return nothing" style="html=1;verticalAlign=bottom;endArrow=open;dashed=1;endSize=8;edgeStyle=elbowEdgeStyle;elbow=vertical;curved=0;rounded=0;" parent="1" edge="1">
          <mxGeometry relative="1" as="geometry">
            <mxPoint x="465" y="190" as="targetPoint" />
            <Array as="points">
              <mxPoint x="575" y="190" />
            </Array>
            <mxPoint x="655" y="190" as="sourcePoint" />
          </mxGeometry>
        </mxCell>
        <mxCell id="xGmH4QYdPzegJPW_liUz-11" value="Error" style="shape=umlFrame;whiteSpace=wrap;html=1;pointerEvents=0;" parent="1" vertex="1">
          <mxGeometry y="170" width="710" height="70" as="geometry" />
        </mxCell>
        <mxCell id="xGmH4QYdPzegJPW_liUz-13" value="Return 404 message" style="html=1;verticalAlign=bottom;endArrow=open;dashed=1;endSize=8;edgeStyle=elbowEdgeStyle;elbow=vertical;curved=0;rounded=0;" parent="1" edge="1">
          <mxGeometry relative="1" as="geometry">
            <mxPoint x="275" y="200" as="targetPoint" />
            <Array as="points">
              <mxPoint x="365" y="200" />
            </Array>
            <mxPoint x="455" y="200" as="sourcePoint" />
          </mxGeometry>
        </mxCell>
        <mxCell id="xGmH4QYdPzegJPW_liUz-15" value="Success" style="shape=umlFrame;whiteSpace=wrap;html=1;pointerEvents=0;" parent="1" vertex="1">
          <mxGeometry y="250" width="710" height="120" as="geometry" />
        </mxCell>
        <mxCell id="xGmH4QYdPzegJPW_liUz-17" value="Return post data" style="html=1;verticalAlign=bottom;endArrow=open;dashed=1;endSize=8;edgeStyle=elbowEdgeStyle;elbow=vertical;curved=0;rounded=0;" parent="1" edge="1">
          <mxGeometry relative="1" as="geometry">
            <mxPoint x="465" y="290" as="targetPoint" />
            <Array as="points">
              <mxPoint x="570" y="290" />
            </Array>
            <mxPoint x="655" y="290" as="sourcePoint" />
          </mxGeometry>
        </mxCell>
        <mxCell id="xGmH4QYdPzegJPW_liUz-24" value="Return data" style="html=1;verticalAlign=bottom;endArrow=open;dashed=1;endSize=8;edgeStyle=elbowEdgeStyle;elbow=vertical;curved=0;rounded=0;" parent="1" target="aM9ryv3xv72pqoxQDRHE-6" edge="1">
          <mxGeometry relative="1" as="geometry">
            <mxPoint x="280" y="320" as="targetPoint" />
            <Array as="points" />
            <mxPoint x="455" y="319.95" as="sourcePoint" />
          </mxGeometry>
        </mxCell>
        <mxCell id="xGmH4QYdPzegJPW_liUz-27" value="Show post data" style="html=1;verticalAlign=bottom;endArrow=open;dashed=1;endSize=8;edgeStyle=elbowEdgeStyle;elbow=vertical;curved=0;rounded=0;" parent="1" source="aM9ryv3xv72pqoxQDRHE-6" target="aM9ryv3xv72pqoxQDRHE-2" edge="1">
          <mxGeometry relative="1" as="geometry">
            <mxPoint x="100" y="340" as="targetPoint" />
            <Array as="points">
              <mxPoint x="185" y="340" />
            </Array>
            <mxPoint x="260" y="340" as="sourcePoint" />
          </mxGeometry>
        </mxCell>
        <mxCell id="xGmH4QYdPzegJPW_liUz-28" value="Error" style="shape=umlFrame;whiteSpace=wrap;html=1;pointerEvents=0;" parent="1" vertex="1">
          <mxGeometry y="420" width="710" height="110" as="geometry" />
        </mxCell>
        <mxCell id="xGmH4QYdPzegJPW_liUz-29" value="Send GET request for search user" style="html=1;verticalAlign=bottom;endArrow=block;edgeStyle=elbowEdgeStyle;elbow=vertical;curved=0;rounded=0;" parent="1" source="aM9ryv3xv72pqoxQDRHE-6" target="xGmH4QYdPzegJPW_liUz-2" edge="1">
          <mxGeometry relative="1" as="geometry">
            <mxPoint x="280" y="390" as="sourcePoint" />
            <Array as="points">
              <mxPoint x="370" y="390" />
            </Array>
            <mxPoint x="450" y="390" as="targetPoint" />
          </mxGeometry>
        </mxCell>
        <mxCell id="xGmH4QYdPzegJPW_liUz-30" value="Search DB using Mongoose" style="html=1;verticalAlign=bottom;endArrow=block;edgeStyle=elbowEdgeStyle;elbow=vertical;curved=0;rounded=0;" parent="1" source="xGmH4QYdPzegJPW_liUz-2" target="xGmH4QYdPzegJPW_liUz-7" edge="1">
          <mxGeometry relative="1" as="geometry">
            <mxPoint x="470" y="410" as="sourcePoint" />
            <Array as="points">
              <mxPoint x="565" y="410" />
            </Array>
            <mxPoint x="650" y="410" as="targetPoint" />
          </mxGeometry>
        </mxCell>
        <mxCell id="xGmH4QYdPzegJPW_liUz-31" value="Return nothing" style="html=1;verticalAlign=bottom;endArrow=open;dashed=1;endSize=8;edgeStyle=elbowEdgeStyle;elbow=vertical;curved=0;rounded=0;" parent="1" source="xGmH4QYdPzegJPW_liUz-7" target="xGmH4QYdPzegJPW_liUz-2" edge="1">
          <mxGeometry relative="1" as="geometry">
            <mxPoint x="470" y="439.77" as="targetPoint" />
            <Array as="points">
              <mxPoint x="580" y="439.77" />
            </Array>
            <mxPoint x="650" y="440" as="sourcePoint" />
          </mxGeometry>
        </mxCell>
        <mxCell id="xGmH4QYdPzegJPW_liUz-32" value="Return 404 message" style="html=1;verticalAlign=bottom;endArrow=open;dashed=1;endSize=8;edgeStyle=elbowEdgeStyle;elbow=vertical;curved=0;rounded=0;" parent="1" source="xGmH4QYdPzegJPW_liUz-2" target="aM9ryv3xv72pqoxQDRHE-6" edge="1">
          <mxGeometry relative="1" as="geometry">
            <mxPoint x="280" y="460" as="targetPoint" />
            <Array as="points">
              <mxPoint x="370" y="460" />
            </Array>
            <mxPoint x="440" y="460" as="sourcePoint" />
          </mxGeometry>
        </mxCell>
        <mxCell id="xGmH4QYdPzegJPW_liUz-33" value="Return user data" style="html=1;verticalAlign=bottom;endArrow=open;dashed=1;endSize=8;edgeStyle=elbowEdgeStyle;elbow=vertical;curved=0;rounded=0;" parent="1" source="xGmH4QYdPzegJPW_liUz-7" target="xGmH4QYdPzegJPW_liUz-2" edge="1">
          <mxGeometry relative="1" as="geometry">
            <mxPoint x="470" y="560" as="targetPoint" />
            <Array as="points">
              <mxPoint x="575" y="560" />
            </Array>
            <mxPoint x="650" y="560" as="sourcePoint" />
          </mxGeometry>
        </mxCell>
        <mxCell id="xGmH4QYdPzegJPW_liUz-34" value="Return data" style="html=1;verticalAlign=bottom;endArrow=open;dashed=1;endSize=8;edgeStyle=elbowEdgeStyle;elbow=vertical;curved=0;rounded=0;" parent="1" source="xGmH4QYdPzegJPW_liUz-2" target="aM9ryv3xv72pqoxQDRHE-6" edge="1">
          <mxGeometry relative="1" as="geometry">
            <mxPoint x="280" y="580" as="targetPoint" />
            <Array as="points">
              <mxPoint x="450" y="580" />
            </Array>
            <mxPoint x="447.5" y="579.95" as="sourcePoint" />
          </mxGeometry>
        </mxCell>
        <mxCell id="xGmH4QYdPzegJPW_liUz-35" value="Show not found user message" style="html=1;verticalAlign=bottom;endArrow=open;dashed=1;endSize=8;edgeStyle=elbowEdgeStyle;elbow=vertical;curved=0;rounded=0;" parent="1" source="aM9ryv3xv72pqoxQDRHE-6" target="aM9ryv3xv72pqoxQDRHE-2" edge="1">
          <mxGeometry relative="1" as="geometry">
            <mxPoint x="100" y="470" as="targetPoint" />
            <Array as="points">
              <mxPoint x="185" y="470" />
            </Array>
            <mxPoint x="260" y="470" as="sourcePoint" />
          </mxGeometry>
        </mxCell>
        <mxCell id="xGmH4QYdPzegJPW_liUz-36" value="Success" style="shape=umlFrame;whiteSpace=wrap;html=1;pointerEvents=0;" parent="1" vertex="1">
          <mxGeometry y="540" width="710" height="120" as="geometry" />
        </mxCell>
        <mxCell id="xGmH4QYdPzegJPW_liUz-38" value="Show user data" style="html=1;verticalAlign=bottom;endArrow=open;dashed=1;endSize=8;edgeStyle=elbowEdgeStyle;elbow=vertical;curved=0;rounded=0;" parent="1" source="aM9ryv3xv72pqoxQDRHE-6" target="aM9ryv3xv72pqoxQDRHE-2" edge="1">
          <mxGeometry relative="1" as="geometry">
            <mxPoint x="100" y="600" as="targetPoint" />
            <Array as="points">
              <mxPoint x="180" y="599.77" />
            </Array>
            <mxPoint x="260" y="599.77" as="sourcePoint" />
          </mxGeometry>
        </mxCell>
        <mxCell id="D7oVI4K9zNwbvm3RDyxD-1" value="" style="group" vertex="1" connectable="0" parent="1">
          <mxGeometry x="81" y="40" width="18" height="640" as="geometry" />
        </mxCell>
        <mxCell id="D7oVI4K9zNwbvm3RDyxD-2" value="" style="endArrow=none;dashed=1;html=1;rounded=0;" edge="1" parent="D7oVI4K9zNwbvm3RDyxD-1">
          <mxGeometry width="50" height="50" relative="1" as="geometry">
            <mxPoint x="9" y="640" as="sourcePoint" />
            <mxPoint x="9" y="64" as="targetPoint" />
          </mxGeometry>
        </mxCell>
        <mxCell id="D7oVI4K9zNwbvm3RDyxD-3" value="User" style="shape=umlActor;verticalLabelPosition=bottom;verticalAlign=top;html=1;outlineConnect=0;" vertex="1" parent="D7oVI4K9zNwbvm3RDyxD-1">
          <mxGeometry width="18" height="39.38461538461539" as="geometry" />
        </mxCell>
        <mxCell id="aM9ryv3xv72pqoxQDRHE-2" value="" style="html=1;points=[];perimeter=orthogonalPerimeter;outlineConnect=0;targetShapes=umlLifeline;portConstraint=eastwest;newEdgeStyle={&quot;edgeStyle&quot;:&quot;elbowEdgeStyle&quot;,&quot;elbow&quot;:&quot;vertical&quot;,&quot;curved&quot;:0,&quot;rounded&quot;:0};" parent="1" vertex="1">
          <mxGeometry x="85" y="120" width="10" height="520" as="geometry" />
        </mxCell>
      </root>
    </mxGraphModel>
  </diagram>
</mxfile>
